<?xml version="1.0" encoding="utf-8"?>
<!-- Generator: Adobe Illustrator 27.2.0, SVG Export Plug-In . SVG Version: 6.00 Build 0)  -->
<svg version="1.1" id="Capa_1" xmlns="http://www.w3.org/2000/svg" xmlns:xlink="http://www.w3.org/1999/xlink" x="0px" y="0px"
	 viewBox="0 0 81.6 73.9" style="enable-background:new 0 0 81.6 73.9;" xml:space="preserve">
<style type="text/css">
	.st0{fill:none;stroke:url(#SVGID_1_);stroke-width:0.75;stroke-miterlimit:10;}
</style>
<radialGradient id="SVGID_1_" cx="42.1652" cy="36.0353" r="32.667" gradientUnits="userSpaceOnUse">
	<stop  offset="0" style="stop-color:#FFFFFF"/>
	<stop  offset="1" style="stop-color:#FFFFFF;stop-opacity:0.1"/>
</radialGradient>
<path class="st0" d="M10.8,3.8C14.6,3,17.3,4,19.6,5.6c1.9-0.5,3.6-1,5.1-1.5c1.9,1.3,3,2.8,3.9,4.6c0.2,0.4,0.6,0.6,0.9,0.9
	c1.5,1.6,3.1,3.1,4.3,4.9c0.7,1,0.5,2.5,0.8,3.7c2,0.8,3.8,1.5,6,2.3c0.5,0.9,1.3,2,2.1,3.4c1.4-1.1,2.9-2.3,4.3-3.5
	c4-3.5,6.7-8,9.7-12.2c1.3-1.9,2.7-3.6,3.7-5c2.6,0.3,4.7,0.7,6.9,0.7c1.9,0,3.9-0.3,6.2-0.5c-2.8,4.1-5.6,7.6-8.8,10.7
	c-1.4,1.4-2.6,3-4.3,4.2c-2.5,1.7-3.5,4.6-5.2,6.9c-1.9,2.6-3.1,5.6-5.2,8.1c-0.6,0.8-0.7,2-0.9,3c-0.2,0.8-0.1,1.6-0.6,2.4
	c-0.9,1.5,0.5,3,0.8,4.5c0.2,0.9,0.6,1.8,0.6,2.8c0,3.5,0,7.1,0,10.6c0,0.8,0.1,1.6-0.5,2.5c-0.4,0.7-0.1,1.8,0.1,2.7
	c0.4,2.2,0.9,4.4,1.4,6.9c-2.6-0.9-4.7-1.8-6.9-2.2c-1.1-0.2-2.4,0.8-3.6,1.3c-0.2-0.2-0.6-0.6-1-1c1-3.1,1-4.4,0-9.2
	c0-0.2,0-0.5,0-0.8v-6l2-2c-0.2-1.3-0.5-2.4-0.7-3.5c-0.3-0.1-0.7-0.2-1-0.3c-0.1-0.2-0.3-0.4-0.3-0.6c0-2-0.1-4,0-6
	c0.1-1.8-0.6-3.3-1.9-4.5c-1.2-1.2-2.4-2.7-3.8-3.7c-1.2-0.9-1.4-2.9-3.1-3.2c-1.7-3.3-4.9-5.2-7.2-8c-0.9-1.1-2-2.2-2.6-3.5
	c-1.4-3.1-3.9-5.3-6.2-7.6C13.2,6.6,12.1,5.2,10.8,3.8L10.8,3.8z"/>
</svg>
