<?xml version="1.0" encoding="utf-8"?>
<!-- Generator: Adobe Illustrator 27.0.0, SVG Export Plug-In . SVG Version: 6.00 Build 0)  -->
<svg version="1.1" id="Capa_1" xmlns="http://www.w3.org/2000/svg" xmlns:xlink="http://www.w3.org/1999/xlink" x="0px" y="0px"
	 viewBox="0 0 93 87" style="enable-background:new 0 0 93 87;" xml:space="preserve">
<style type="text/css">
	.st0{fill:#469745;}
	.st1{fill:#7B9B40;}
	.st2{fill:#97522C;}
	.st3{fill:#E6D720;}
	.st4{fill:#985530;}
	.st5{fill:#8D5E44;}
	.st6{fill:#F1E3D5;}
	.st7{fill:#EAEFD8;}
	.st8{fill:#F2F5E6;}
	.st9{fill:#F0F3E2;}
	.st10{fill:#F9F5F0;}
	.st11{fill:#759F31;}
	.st12{fill:#859D54;}
	.st13{fill:#D8E4C4;}
	.st14{fill:#EFF2E3;}
	.st15{fill:#E1EACE;}
	.st16{fill:#E9C6B0;}
	.st17{fill:#F3D9C6;}
	.st18{fill:#9E4C23;}
	.st19{fill:#AA847F;}
</style>
<g>
	<g>
		<path class="st0" d="M3.88,17.92c-1.92-0.1-2.04-0.07-2.09,1.61c-0.08,2.65,0.06,5.3-0.06,7.95c-0.12,2.64-0.46,5.26-0.66,7.89
			C1.03,35.91,1.1,36.5,1.29,37c0.81,2.24,1.53,4.52,2.56,6.65c1.43,2.94,3.03,5.81,4.71,8.62c3.63,6.06,9.46,9.13,15.9,11.2
			c3.05,0.98,6.23,1.57,9.37,2.24c4.8,1.02,9.27,2.74,12.74,6.34c1.54,1.59,2.76,3.5,4.16,5.24c0.24,0.3,0.6,0.51,0.91,0.76
			c0.23-0.33,0.56-0.63,0.67-0.99c1.33-4.82,2.12-9.65,0.5-14.6c-1.73-5.32-5.35-9-10.21-11.37c-3.25-1.58-6.78-2.59-10.18-3.85
			c-2.34,0.09-4.54-0.42-6.64-1.42l-0.01,0c-0.18-0.08-0.36-0.16-0.54-0.24l0,0c-1.13-0.64-2.38-1.13-3.38-1.93
			c-2.87-2.34-5.63-4.83-8.46-7.22c-1.24-1.05-2.61-1.91-4.31-1.94c-1.71-0.03-2.33,0.83-1.74,2.4c0.12,0.32,0.28,0.65,0.48,0.92
			c3.18,4.15,5.72,8.83,10.23,11.84c0.18,0.12,0.24,0.42,0.35,0.64c-0.26-0.05-0.56-0.04-0.77-0.17c-1.06-0.68-2.24-1.24-3.11-2.12
			c-1.66-1.68-3.2-3.49-4.67-5.34c-1.3-1.64-2.49-3.37-3.61-5.14c-0.97-1.54-0.75-2.49,0.48-3.85c0.29-0.32,0.58-0.83,0.54-1.23
			C6.84,28,7.12,23.45,5.24,19.24l-0.01-0.01c-0.28-0.33-0.56-0.66-0.84-0.99l0.01,0C4.23,18.13,4.06,18.03,3.88,17.92z"/>
		<path class="st0" d="M12.55,22.66c0.37,3.39,0.83,6.76,1.07,10.16c0.1,1.4,0.2,2.57,1.54,3.38c0.82,0.5,1.48,1.27,2.24,1.89
			c0.19,0.16,0.47,0.22,0.7,0.32c0.06-0.24,0.19-0.49,0.17-0.73c-0.25-2.63-0.49-5.27-0.79-7.9c-0.16-1.45-0.23-2.96-0.71-4.32
			c-0.45-1.27-1.37-2.37-2.09-3.54c-0.1-0.1-0.2-0.2-0.29-0.3c-0.31-0.05-0.62-0.1-0.93-0.15C13.15,21.87,12.85,22.27,12.55,22.66z"
			/>
		<path class="st0" d="M7.12,19.55c0.29,3.89,0.66,7.77,0.83,11.66c0.06,1.37,0.39,2.14,1.85,2.11c0.2,0,0.4,0.11,0.6,0.17
			c0.65,0.2,1.31,0.4,1.96,0.6c0.04-0.81,0.18-1.62,0.11-2.42c-0.21-2.43-0.31-4.89-0.82-7.26c-0.35-1.66-1.28-3.2-1.95-4.8
			C8.85,19.38,8.01,18.44,7.12,19.55z"/>
		<path class="st0" d="M18.35,27.97c0.33,3.46,0.73,6.92,0.93,10.38c0.07,1.17,0.4,1.98,1.3,2.65c0.39,0.29,0.72,0.67,1.1,0.96
			c0.57,0.43,1.18,0.82,1.77,1.23c-0.06-0.76-0.14-1.51-0.19-2.27c-0.03-0.47-0.03-0.94-0.04-1.41c-0.05-1.45-0.09-2.9-0.16-4.35
			c-0.13-2.61-0.73-5.06-2.63-7.01c-0.18-0.11-0.36-0.22-0.54-0.33c-0.13,0.01-0.26,0-0.39-0.05c-0.18-0.03-0.35-0.07-0.53-0.1
			C18.77,27.78,18.56,27.88,18.35,27.97z"/>
		<path class="st0" d="M4.39,18.24c0.28,0.33,0.56,0.66,0.84,0.99C4.95,18.9,4.67,18.57,4.39,18.24z"/>
		<path class="st0" d="M13.46,21.48c0.31,0.05,0.62,0.1,0.93,0.15C14.08,21.58,13.77,21.53,13.46,21.48z"/>
		<path class="st0" d="M25.22,45.57c0.18,0.08,0.36,0.16,0.54,0.24C25.58,45.73,25.4,45.65,25.22,45.57z"/>
		<path class="st0" d="M19.9,27.83c0.18,0.11,0.36,0.22,0.54,0.33C20.25,28.05,20.07,27.94,19.9,27.83z"/>
		<path class="st0" d="M18.98,27.68c0.18,0.03,0.35,0.07,0.53,0.1C19.33,27.75,19.15,27.71,18.98,27.68z"/>
		<path class="st0" d="M3.88,17.92c0.17,0.11,0.35,0.21,0.52,0.32C4.23,18.13,4.06,18.03,3.88,17.92z"/>
	</g>
	<g>
		<path class="st0" d="M89.12,17.52c1.92-0.1,2.04-0.07,2.09,1.61c0.08,2.65-0.06,5.3,0.06,7.95c0.12,2.64,0.46,5.26,0.66,7.89
			c0.04,0.54-0.03,1.13-0.21,1.63c-0.81,2.24-1.53,4.52-2.56,6.65c-1.43,2.94-3.03,5.81-4.71,8.62c-3.63,6.06-9.46,9.13-15.9,11.2
			c-3.05,0.98-6.23,1.57-9.37,2.24c-4.8,1.02-9.27,2.74-12.74,6.34c-1.54,1.59-2.76,3.5-4.16,5.24c-0.24,0.3-0.6,0.51-0.91,0.76
			c-0.23-0.33-0.56-0.63-0.67-0.99c-1.33-4.82-2.12-9.65-0.5-14.6c1.73-5.32,5.35-9,10.21-11.37c3.25-1.58,6.78-2.59,10.18-3.85
			c2.34,0.09,4.54-0.42,6.64-1.42l0.01,0c0.18-0.08,0.36-0.16,0.54-0.24l0,0c1.13-0.64,2.38-1.13,3.38-1.93
			c2.87-2.34,5.63-4.83,8.46-7.22c1.24-1.05,2.61-1.91,4.31-1.94c1.71-0.03,2.33,0.83,1.74,2.4c-0.12,0.32-0.28,0.65-0.48,0.92
			c-3.18,4.15-5.72,8.83-10.23,11.84c-0.18,0.12-0.24,0.42-0.35,0.64c0.26-0.05,0.56-0.04,0.77-0.17c1.06-0.68,2.24-1.24,3.11-2.12
			c1.66-1.68,3.2-3.49,4.67-5.34c1.3-1.64,2.49-3.37,3.61-5.14c0.97-1.54,0.75-2.49-0.48-3.85c-0.29-0.32-0.58-0.83-0.54-1.23
			c0.41-4.43,0.13-8.98,2.01-13.19l0.01-0.01c0.28-0.33,0.56-0.66,0.84-0.99l-0.01,0C88.77,17.73,88.94,17.62,89.12,17.52z"/>
		<path class="st0" d="M80.45,22.26c-0.37,3.39-0.83,6.76-1.07,10.16c-0.1,1.4-0.2,2.57-1.54,3.38c-0.82,0.5-1.48,1.27-2.24,1.89
			c-0.19,0.16-0.47,0.22-0.7,0.32c-0.06-0.24-0.19-0.49-0.17-0.73c0.25-2.63,0.49-5.27,0.79-7.9c0.16-1.45,0.23-2.96,0.71-4.32
			c0.45-1.27,1.37-2.37,2.09-3.54c0.1-0.1,0.2-0.2,0.29-0.3c0.31-0.05,0.62-0.1,0.93-0.15C79.85,21.46,80.15,21.86,80.45,22.26z"/>
		<path class="st0" d="M85.88,19.14c-0.29,3.89-0.66,7.77-0.83,11.66c-0.06,1.37-0.39,2.14-1.85,2.11c-0.2,0-0.4,0.11-0.6,0.17
			c-0.65,0.2-1.31,0.4-1.96,0.6c-0.04-0.81-0.18-1.62-0.11-2.42c0.21-2.43,0.31-4.89,0.82-7.26c0.35-1.66,1.28-3.2,1.95-4.8
			C84.15,18.97,84.99,18.03,85.88,19.14z"/>
		<path class="st0" d="M74.65,27.57c-0.33,3.46-0.73,6.92-0.93,10.38c-0.07,1.17-0.4,1.98-1.3,2.65c-0.39,0.29-0.72,0.67-1.1,0.96
			c-0.57,0.43-1.18,0.82-1.77,1.23c0.06-0.76,0.14-1.51,0.19-2.27c0.03-0.47,0.03-0.94,0.04-1.41c0.05-1.45,0.09-2.9,0.16-4.35
			c0.13-2.61,0.73-5.06,2.63-7.01c0.18-0.11,0.36-0.22,0.54-0.33c0.13,0.01,0.26,0,0.39-0.05c0.18-0.03,0.35-0.07,0.53-0.1
			C74.23,27.37,74.44,27.47,74.65,27.57z"/>
		<path class="st0" d="M88.61,17.83c-0.28,0.33-0.56,0.66-0.84,0.99C88.05,18.49,88.33,18.16,88.61,17.83z"/>
		<path class="st0" d="M79.54,21.07c-0.31,0.05-0.62,0.1-0.93,0.15C78.92,21.17,79.23,21.12,79.54,21.07z"/>
		<path class="st0" d="M67.78,45.16c-0.18,0.08-0.36,0.16-0.54,0.24C67.42,45.33,67.6,45.24,67.78,45.16z"/>
		<path class="st0" d="M73.1,27.42c-0.18,0.11-0.36,0.22-0.54,0.33C72.75,27.64,72.93,27.53,73.1,27.42z"/>
		<path class="st0" d="M74.02,27.27c-0.18,0.03-0.35,0.07-0.53,0.1C73.67,27.34,73.85,27.3,74.02,27.27z"/>
		<path class="st0" d="M89.12,17.52c-0.17,0.11-0.35,0.21-0.52,0.32C88.77,17.73,88.94,17.62,89.12,17.52z"/>
	</g>
	<g>
		<path class="st1" d="M73.22,10.59c-0.34-0.11-0.68-0.18-1.05-0.18c-0.68-0.18-1.39-0.39-2.1-0.57c-0.23-0.05-0.48,0-0.71-0.05
			c-0.09-0.02-0.16-0.14-0.25-0.21c-0.43-0.05-0.87,0.14-1.28-0.14c-0.32-0.2-0.8,0.14-1.12-0.25c-0.02-0.05-0.11-0.02-0.18,0
			c-1.41,0.05-2.78-0.34-4.19-0.23c-0.71,0.07-1.46-0.09-2.14,0.05c-1.34,0.23-2.71,0.34-4.05,0.73c-1.39,0.39-2.69,0.87-3.96,1.48
			c-0.93,0.48-1.82,1.05-2.69,1.64c-0.07,0.32-0.3,0.43-0.61,0.41l-0.82,0.82c-0.41,0.41-0.82,0.82-1.21,1.23
			c-0.02,0.11-0.02,0.27-0.09,0.36c-0.27,0.41-0.59,0.82-0.93,1.25c0,0-0.11,0-0.2,0c-0.02,0.14-0.02,0.27-0.09,0.39
			c-0.91,1.39-1.59,2.92-2.07,4.51c0,0.02-0.05,0-0.09,0v0.89c-0.46-0.2-0.59-0.5-0.61-0.89c-0.3-0.39-0.61-0.77-0.89-1.18
			c-1.12-1.73-2.78-2.78-4.6-3.58c-1.23-0.55-2.53-0.82-3.87-1c-1.25-0.16-2.46-0.07-3.69-0.16c-0.71-0.05-1.34,0.36-2.05,0.21v0.43
			h1.57c0.11,0.27,0.07,0.39-0.23,0.41c-0.21,0-0.59-0.21-0.52,0.34h-0.8c0-0.25,0-0.5-0.02-0.75c-0.14-0.02-0.27-0.02-0.41-0.02
			c-0.41,0-0.82-0.02-1.23,0.02c-0.34,0.02-0.68,0.11-1.02,0.18c0.43,0.32,0.87,0.64,1.25,0.96c0.41,0.34,0.82,0.68,1.18,1.05
			c0.36,0.34,0.77,0.73,1,1.18c0.25,0.46,0.68,0.75,0.87,1.25c0.18,0.43,0.55,0.8,0.8,1.18c0.05,0.07,0,0.2,0,0.3
			c0.14,0.14,0.32,0.23,0.41,0.39c0.27,0.43,0.52,0.87,0.77,1.3c0.66,1.21,1.66,2.14,2.51,3.21c0.75,0.52,1.5,1.09,2.28,1.57
			c0.77,0.48,1.57,0.93,2.41,1.28c0.34,0.14,0.66,0.32,1.02,0.43c0.21-0.02,0.34,0.09,0.52,0.21c1.23,0.77,2.03,1.91,2.62,3.21
			c0.11,0.25,0.09,0.46,0.11,0.66c0.43,0.34,0.46,0.87,0.61,1.32c0.36,1.07,0.68,2.14,1.02,3.23c0.18,0.55,0.18,0.55,0.73,0.55
			c0.34,0.02,0.68,0,1,0c0.21-0.25,0.05-0.43-0.07-0.71c-0.18-0.48-0.48-0.96-0.43-1.53c-0.48-0.23-0.25-0.82-0.61-1.12
			c-0.05-0.71-0.27-1.39-0.41-2.07c-0.14-0.71,0.23-1.3,0.48-1.91h0.34c0.02-0.16-0.11-0.41,0.21-0.41l0.2-0.2
			c0.55-0.41,1.09-0.84,1.82-0.82h0.2c0.25-0.39,0.64-0.43,1.02-0.41c1.62-0.2,3.26-0.43,4.74-1.05c1.41-0.59,2.8-1.28,4.08-2.16
			c0.5-0.34,1.02-0.66,1.48-1.05c0.5-0.43,0.98-0.89,1.5-1.3c0.27-0.2,0.57-0.39,0.87-0.57c0.48-0.57,0.91-1.21,1.43-1.73
			c0.87-0.84,1.43-1.89,2.25-2.76c0.02-0.14,0-0.3,0.07-0.39c0.73-0.89,1.5-1.73,2.21-2.64c0.3-0.39,0.5-0.84,0.98-1.07
			c1.12-1.18,2.14-2.48,3.6-3.32c0.43-0.23,0.73-0.73,1.3-0.75c0.39-0.11,0.71-0.43,1.14-0.46c0.18,0,0.36-0.25,0.64-0.46
			C74.43,10.93,73.81,10.82,73.22,10.59z M47.28,15.58c0.21-0.3,0.3-0.5,0.43-0.59c0.21-0.09,0.46-0.07,0.73-0.11v1.23h-1.16V15.58z
			 M32.59,16.97v-0.39h1.41C33.62,17.22,33.07,16.83,32.59,16.97z M60.74,14.92c-0.25,0.09-0.52,0.18-0.77,0.27
			c-0.16,0.05-0.3,0.09-0.46,0.14c-0.43,0.25-0.84,0.57-1.3,0.77c-1.05,0.46-2,1.07-2.94,1.73c-0.23,0.18-0.43,0.11-0.66,0.14
			c-0.02,0.14,0.07,0.3-0.16,0.41c-0.87,0.5-1.64,1.18-2.41,1.82c-0.82,0.71-1.59,1.43-2.35,2.19c-0.32,0.32-0.73,0.57-0.87,1.07
			c-0.46,0.11-0.55,0.59-0.84,0.87c-0.32,0.3-0.41,0.82-0.75,1.09c-0.55,0.46-0.68,1.21-1.18,1.66c0.02,0.36-0.57,0.3-0.5,0.68
			c-0.46,0.41-0.59,0.93-0.52,1.53c-0.14,0.11-0.27,0.21-0.41,0.32c0.07,0.09,0.18,0.2,0.18,0.25c-0.52,0.82-0.64,1.78-0.93,2.66
			c-0.11,0.3-0.09,0.64-0.11,0.96c-0.11,0-0.18,0-0.32,0.02c-0.16-2.55-1.16-4.81-2.48-6.95v-0.2l-0.61-0.61
			c-0.09-0.14-0.2-0.25-0.27-0.39c-0.07-0.14-0.09-0.3-0.14-0.43c-0.07-0.07-0.14-0.14-0.2-0.21c-0.07-0.07-0.14-0.14-0.21-0.2
			c-0.55-0.55-1.09-1.09-1.64-1.64c-0.64-0.61-1.55-0.96-1.96-1.82h-0.3c-0.5-0.05-0.8-0.48-1.3-0.73c0.77-0.23,1.25,0.14,1.71,0.52
			c0.25,0.18,0.5,0.39,0.75,0.57c0.05-0.05,0.09-0.09,0.18-0.18c0.3,0.57,1.07,0.61,1.32,1.23c0.46,0.05,0.57,0.16,0.61,0.61
			c0.21,0.2,0.41,0.41,0.61,0.61c0.14,0.05,0.34,0.05,0.43,0.16c0.27,0.27,0.52,0.59,0.73,0.91c0.25,0.39,0.27,0.89,0.75,1.21
			c0.34,0.25,0.5,0.8,0.73,1.21v0.21c0.07,0.07,0.14,0.14,0.21,0.18c0.05,0.16,0.09,0.32,0.16,0.46c0.32,0.66,0.66,1.32,1.02,2.05
			c0.14-0.14,0.3-0.3,0.46-0.46c-0.02-0.46,0.16-0.87,0.36-1.28c0.2-0.46,0.43-0.91,0.66-1.34c0.09-0.14,0.25-0.25,0.36-0.36
			c-0.02-0.05-0.09-0.11-0.14-0.16c0.14-0.18,0.25-0.39,0.39-0.57c0.48-0.71,0.93-1.43,1.46-2.14c0.98-1.28,2.14-2.39,3.32-3.51
			c0.73-0.68,1.57-1.25,2.37-1.87c0.55-0.41,1.09-0.77,1.66-1.14c0.09-0.07,0.25-0.07,0.36-0.09c1.3-1,2.8-1.64,4.3-2.03
			c0.39-0.43,0.91-0.43,1.41-0.41c0.34-0.32,0.73-0.43,1.18-0.41C61.61,14.89,60.99,14.6,60.74,14.92z"/>
		<path class="st2" d="M25.8,42.66c0.82-0.24,1.63-0.53,2.46-0.71c0.81-0.18,1.61-0.42,2.44-0.55c0.91-0.14,1.86-0.17,2.73-0.54
			c0.06-0.02,0.13-0.03,0.19-0.04c0.79-0.07,1.58-0.16,2.37-0.2c0.43-0.02,0.79-0.29,1.24-0.23c0.41,0.05,0.83-0.08,1.25-0.15
			c0.86-0.14,1.76-0.04,2.65-0.04c0.87,0,1.75,0,2.68,0c-0.75,0.86-1.12,1.06-2.05,1.23c-0.15,0.03-0.28,0.13-0.43,0.2
			c-0.02-0.06-0.05-0.17-0.07-0.17c-0.7-0.01-1.4-0.01-2.1,0c-0.02,0-0.05,0.11-0.07,0.17c-0.51-0.36-1.1-0.25-1.63-0.18
			c-0.75,0.1-1.52,0.22-2.06,0.9c-0.54,0.67-1.31,0.91-2.15,0.92c-0.78,0.01-1.55,0-2.33,0c-0.3-0.41-0.67-0.14-1.02-0.17
			c0,0.25,0,0.41,0,0.58c-0.07,0.07-0.14,0.14-0.2,0.2c-0.54,0-1.09,0-1.63,0c-0.41,0-0.82,0-1.23,0c-0.08-0.07-0.15-0.18-0.24-0.19
			c-0.19-0.03-0.38-0.01-0.58-0.01c-0.07,0-0.14,0-0.2,0c-0.08-0.07-0.16-0.19-0.25-0.19c-0.32-0.02-0.65-0.01-0.98-0.01
			c0-0.1,0-0.2,0-0.3C24.96,42.95,25.48,43.05,25.8,42.66z"/>
		<path class="st3" d="M46.23,40.09v0.11c-0.41,0-0.75,0-1.07,0.02c-0.07,0-0.11,0.11-0.16,0.18c-0.32,0.09-0.46,0.3-0.41,0.61
			c-0.14,0.16-0.25,0.34-0.39,0.5c-0.82,0.84-1.89,1.12-3.01,1.34c-0.59,0.14-1.25,0.07-1.71,0.61h-0.61v0.61
			c-0.14,0.21-0.27,0.41-0.41,0.61c-0.34-0.07-0.48,0.07-0.41,0.41c-0.23,0-0.48,0.02-0.41-0.34c0.02-0.09,0-0.18,0-0.27
			c0.09-0.14,0.23-0.25,0.27-0.41c0.23-0.46,0.48-0.87,0.93-1.12c0.05-0.02,0-0.18-0.02-0.32h-1.43c-0.46-0.02-0.82,0.14-1.14,0.46
			c-0.16,0.18-0.32,0.36-0.5,0.5c-0.39,0.32-0.82,0.64-1.34,0.66c-0.73,0.05-1.43,0.07-2.12-0.32c-0.14-0.09-0.36-0.05-0.57-0.07
			c-0.05-0.07-0.09-0.2-0.16-0.2c-0.34-0.02-0.68,0-1-0.02c-0.09,0-0.18-0.11-0.27-0.18c0.21-0.07,0.41-0.14,0.61-0.2h2.32
			c0.84-0.02,1.62-0.25,2.16-0.91c0.52-0.68,1.3-0.8,2.05-0.91c0.52-0.07,1.12-0.18,1.64,0.18h2.23c0.16-0.07,0.3-0.16,0.43-0.2
			c0.93-0.16,1.3-0.36,2.05-1.23H41.1v-0.11H46.23z"/>
		<path class="st3" d="M46.23,40.09v0.11c-0.41,0-0.75,0-1.07,0.02c-0.07,0-0.11,0.11-0.16,0.18c0,0.2,0,0.41,0,0.61
			c0.11,0.09,0.25,0.2,0.39,0.27c0.11,0.07,0.27,0.09,0.43,0.14c0.07,0,0.14,0,0.2,0c0-0.11,0-0.25,0-0.61
			c0.16,0.34,0.2,0.5,0.27,0.59c0.55,0.61,1.09,1.25,1.66,1.84c0.57,0.61,1.18,1.21,1.8,1.8c0.11,0.14,0.34,0.18,0.46,0.3
			c0.09,0.09,0.07,0.25,0.09,0.36h0.39c0,0.39,0,0.8,0.02,1.18c0.02,0.09,0.14,0.16,0.2,0.25c0.07-0.05,0.14-0.11,0.23-0.11
			c0.05,0,0.11,0.07,0.18,0.11c0.3-0.02,0.16-0.25,0.2-0.41c0.2-0.27,0.41-0.27,0.61,0h0.2v-0.41c-0.25-0.34-0.5-0.64-0.91-0.84
			c-0.39-0.18-0.71-0.55-0.93-0.91c-0.32-0.5-0.98-0.73-1.02-1.48c0.18,0,0.39-0.02,0.57-0.02c0.98-0.07,1.98-0.16,2.96-0.2
			c1.09-0.05,1.98,0.32,2.39,1.43h0.48c-0.2-0.46-0.46-0.87-0.07-1.23c-0.25-0.3-0.55-0.59-0.77-0.91c-0.09-0.11-0.09-0.3,0.16-0.32
			c0.2,0,0.39-0.02,0.57,0c0.09,0.02,0.16,0.14,0.25,0.2l0.2,0.2c0.23,0.02,0.43-0.07,0.66,0.14c0.32,0.3,0.75,0.3,1.18,0.27h1.41
			v-0.43c-0.34,0.05-0.68,0.02-0.98,0.11c-0.34,0.09-0.55-0.18-0.91-0.14c0.2-0.16,0.34-0.25,0.48-0.36
			c-0.43-0.07-0.84-0.14-1.02-0.61c-0.16-0.07-0.34-0.16-0.5-0.25c-0.09,0.18-0.16,0.32-0.2,0.43c-0.68,0.2-1.16-0.23-1.73-0.46
			c0-0.5-0.39-0.3-0.64-0.34c0,0.11,0,0.2,0,0.34c-0.73,0.09-1.28,0.66-2,0.75c-0.18,0.05-0.36,0.14-0.57,0.14
			c-0.8,0-1.62-0.02-2.44,0c-0.52,0.02-0.91-0.3-1.3-0.52c-0.34-0.2-0.64-0.57-0.64-1.12c0.57,0,1.12,0,1.64,0v-0.11H46.23z"/>
		<path class="st4" d="M66.64,43.89c-0.37,0.3-0.81,0.19-1.23,0.2c0.03-0.14-0.09-0.33,0.15-0.42c0.11-0.04,0.2-0.16,0.5-0.41
			c-1.04,0.1-1.83,0.18-2.6,0.25c-0.09-0.22-0.14-0.35-0.28-0.68c-0.25,0.26-0.4,0.41-0.51,0.51c0.19,0.42,0.38,0.58,0.69,0.54
			c0,0.14,0,0.27,0,0.41c-0.54,0-1.09,0-1.63,0c-0.69-0.5-1.37-1-2.13-1.55c0.6-0.33,1.1-0.61,1.6-0.88
			c0.05-0.03,0.15-0.04,0.19-0.02c0.47,0.28,1.02,0.13,1.52,0.26c0.69,0.18,1.37,0.38,2.09,0.35c0.02,0.31,0.25,0.17,0.41,0.2
			c0.07,0,0.14,0,0.2,0c0.1,0.64,0.72,0.27,1.02,0.48C66.64,43.42,66.64,43.65,66.64,43.89z"/>
		<path class="st4" d="M53.98,40.62c0,0.1,0,0.2,0,0.34c-0.73,0.08-1.28,0.66-2.01,0.76c-0.19,0.03-0.37,0.12-0.56,0.12
			c-0.81,0.01-1.63-0.01-2.44,0.01c-0.52,0.01-0.91-0.3-1.31-0.53c-0.35-0.21-0.62-0.56-0.63-1.11c0.57,0,1.1,0,1.63,0
			c0.51,0,1.02-0.03,1.52,0.01c0.45,0.03,0.89,0.12,1.34,0.2c0.44,0.08,0.89-0.12,1.36,0.17C53.15,40.76,53.61,40.62,53.98,40.62z"
			/>
		<path class="st3" d="M65,42.46c-0.72,0.04-1.4-0.17-2.09-0.35c-0.5-0.13-1.04,0.02-1.52-0.26c-0.05-0.03-0.14-0.01-0.19,0.02
			c-0.5,0.27-0.99,0.55-1.6,0.88c0.75,0.55,1.44,1.05,2.13,1.55c0,0.07,0,0.14,0,0.2c-0.33-0.06-0.47,0.07-0.41,0.41
			c-0.27-0.2-0.54-0.41-0.82-0.61c-0.09-0.08-0.19-0.16-0.34-0.29c-0.05,0.3-0.09,0.5-0.13,0.7c-0.13-0.16-0.24-0.29-0.35-0.41
			c-0.31-0.56-0.53-1.2-1.23-1.43c-0.15-0.03-0.39,0.1-0.41-0.2c0.47,0,0.93,0,1.41,0c0-0.16,0-0.25,0-0.42
			c-0.34,0.03-0.67,0.01-0.97,0.1c-0.33,0.09-0.55-0.17-0.91-0.12c0.2-0.16,0.34-0.27,0.47-0.37c0.68,0,1.36,0,2.07,0
			c-0.11-0.2-0.17-0.3-0.23-0.41c0.58-0.1,1.2,0.23,1.74-0.2c0.25,0.35,0.69,0.05,0.91,0.22c0.42,0.32,0.77,0.1,1.13-0.05
			c0.07,0.17,0.11,0.29,0.17,0.44c0.35,0,0.71,0,1.14,0C65,42.07,65,42.26,65,42.46z"/>
		<path class="st5" d="M66.64,43.89c0-0.23,0-0.47,0-0.75c-0.3-0.2-0.92,0.16-1.02-0.48c0.95-0.02,1.8,0.38,2.7,0.62
			c0.07,0.02,0.11,0.13,0.16,0.2c0,0.03,0,0.09,0,0.09C67.86,43.66,67.27,43.91,66.64,43.89z"/>
		<path class="st5" d="M59.9,41.44c0.06,0.11,0.12,0.21,0.23,0.41c-0.71,0-1.39,0-2.07,0c-0.42-0.07-0.84-0.15-1.02-0.61
			c0.22,0,0.4-0.45,0.66-0.06c0.02,0.03,0.05,0.06,0.08,0.05C58.5,41.1,59.18,41.47,59.9,41.44z"/>
		<path class="st6" d="M65.41,42.66c-0.15-0.03-0.39,0.1-0.41-0.2C65.16,42.49,65.4,42.36,65.41,42.66z"/>
		<path class="st7" d="M45.4,31.84c0.07-0.07,0.14-0.14,0.2-0.2C45.54,31.7,45.47,31.77,45.4,31.84z"/>
		<path class="st8" d="M30.12,23.28c0.07,0.07,0.14,0.14,0.2,0.2C30.26,23.42,30.19,23.35,30.12,23.28z"/>
		<path class="st9" d="M71.6,14.98c0.03-0.03,0.05-0.05,0.07-0.07c0.02,0.05,0.05,0.09,0.06,0.14c0,0.02-0.04,0.04-0.06,0.07
			C71.65,15.07,71.62,15.02,71.6,14.98z"/>
		<path class="st10" d="M47.42,11.81c0.05-0.06,0.09-0.11,0.14-0.17c0.02,0.02,0.04,0.04,0.06,0.06c-0.06,0.05-0.11,0.09-0.17,0.14
			C47.45,11.84,47.44,11.82,47.42,11.81z"/>
		<path class="st3" d="M44,29.61c-0.03-0.47,0.17-0.87,0.36-1.28c0.21-0.45,0.43-0.91,0.67-1.35c0.08-0.14,0.24-0.24,0.36-0.36
			c-0.03-0.04-0.1-0.11-0.13-0.15c0.13-0.2,0.25-0.39,0.38-0.58c0.49-0.71,0.95-1.45,1.47-2.14c0.97-1.29,2.14-2.41,3.31-3.5
			c0.73-0.69,1.57-1.27,2.37-1.87c0.54-0.4,1.1-0.78,1.66-1.15c0.1-0.07,0.25-0.05,0.37-0.08c0.12,0,0.24,0,0.37,0
			c-0.07,0.4-0.32,0.61-0.58,0.82c-0.03,0.15,0.06,0.29-0.16,0.42c-0.88,0.5-1.64,1.16-2.42,1.81c-0.82,0.69-1.6,1.42-2.35,2.19
			c-0.32,0.33-0.74,0.58-0.87,1.07c-0.46,0.11-0.54,0.59-0.84,0.87c-0.32,0.3-0.43,0.82-0.75,1.09c-0.55,0.46-0.68,1.2-1.2,1.66
			c0.03,0.38-0.57,0.29-0.51,0.69c-0.45,0.41-0.59,0.93-0.5,1.51c-0.15,0.12-0.28,0.22-0.42,0.33c-0.05,0.08-0.07,0.19-0.14,0.23
			c-0.12,0.07-0.27,0.09-0.41,0.14C44.05,29.86,44.03,29.73,44,29.61z"/>
		<path class="st3" d="M44,29.61c0.02,0.12,0.04,0.25,0.06,0.37c0.14-0.04,0.28-0.07,0.41-0.14c0.07-0.04,0.1-0.15,0.14-0.23
			c0.07,0.09,0.21,0.22,0.19,0.25c-0.53,0.81-0.64,1.77-0.95,2.66c-0.1,0.3-0.08,0.64-0.11,0.95c-0.1,0.01-0.17,0.01-0.31,0.02
			c-0.16-2.55-1.17-4.81-2.5-6.95c0.06-0.02,0.11-0.04,0.17-0.07c-0.06-0.05-0.11-0.09-0.17-0.14c-0.07-0.07-0.14-0.14-0.2-0.2
			c-0.07-0.07-0.14-0.14-0.2-0.2c-0.07-0.07-0.14-0.14-0.2-0.2c-0.09-0.13-0.2-0.24-0.27-0.38c-0.07-0.13-0.09-0.29-0.14-0.44
			c-0.07-0.07-0.14-0.14-0.2-0.2c-0.07-0.07-0.14-0.14-0.2-0.2c-0.54-0.54-1.09-1.09-1.63-1.63c0.14-0.14,0.27-0.27,0.41-0.41
			c0.46,0.04,0.57,0.16,0.61,0.61c-0.07,0.05-0.18,0.08-0.2,0.15c-0.11,0.36,0.55,0.18,0.42,0.58c0,0,0.17,0.09,0.24,0.08
			c0.06-0.01,0.1-0.12,0.15-0.19c0.15,0.05,0.35,0.05,0.44,0.15c0.26,0.28,0.51,0.59,0.72,0.92c0.25,0.4,0.29,0.88,0.76,1.21
			c0.35,0.24,0.5,0.78,0.74,1.19c-0.06,0.02-0.11,0.04-0.17,0.07c0.06,0.05,0.11,0.09,0.17,0.14c0.07,0.07,0.14,0.14,0.2,0.2
			c0.05,0.15,0.07,0.31,0.14,0.44c0.33,0.67,0.67,1.32,1.04,2.04C43.7,29.91,43.85,29.76,44,29.61z"/>
		<path class="st3" d="M54.62,17.97c0.26-0.2,0.51-0.41,0.58-0.82c-0.13,0-0.25,0-0.37,0c1.28-1,2.8-1.65,4.29-2.04
			c0.15,0.03,0.39-0.1,0.41,0.2c-0.43,0.26-0.85,0.57-1.3,0.78c-1.05,0.47-2.01,1.07-2.94,1.74C55.06,18,54.84,17.94,54.62,17.97z"
			/>
		<path class="st3" d="M38.29,22.46c-0.14,0.14-0.27,0.27-0.41,0.41c-0.64-0.63-1.55-0.95-1.96-1.84c-0.09,0-0.19,0-0.29,0
			c0.02-0.31,0.25-0.17,0.41-0.2c0.25,0.19,0.5,0.39,0.75,0.58c0.05-0.05,0.1-0.1,0.19-0.19C37.27,21.8,38.04,21.84,38.29,22.46z"/>
		<path class="st11" d="M47.29,16.1c0-0.26,0-0.49,0-0.52c0.2-0.29,0.28-0.51,0.44-0.59c0.19-0.1,0.44-0.08,0.72-0.11
			c0,0.42,0,0.8,0,1.23C48.11,16.1,47.74,16.1,47.29,16.1z"/>
		<path class="st11" d="M27.7,16.57c0.5,0,1.02,0,1.54,0c0.11,0.26,0.08,0.38-0.22,0.39c-0.22,0.01-0.59-0.19-0.53,0.35
			c-0.27,0-0.52,0-0.79,0C27.7,17.06,27.7,16.8,27.7,16.57z"/>
		<path class="st12" d="M25.01,16.75c-0.12,0-0.25,0-0.37,0c1-0.28,1.97-0.69,3.03-0.61c0,0.14,0,0.27,0,0.41c-0.14,0-0.27,0-0.41,0
			c-0.41,0-0.81-0.03-1.22,0.01C25.7,16.58,25.36,16.68,25.01,16.75z"/>
		<path class="st3" d="M36.04,20.83c-0.15,0.03-0.39-0.1-0.41,0.2c-0.52-0.04-0.82-0.46-1.32-0.73
			C35.09,20.08,35.57,20.44,36.04,20.83z"/>
		<path class="st3" d="M59.52,15.32c-0.02-0.31-0.25-0.17-0.41-0.2c0.39-0.42,0.91-0.41,1.43-0.41c0.07,0.07,0.14,0.14,0.2,0.2
			c-0.26,0.09-0.52,0.18-0.78,0.27C59.82,15.23,59.67,15.27,59.52,15.32z"/>
		<path class="st11" d="M34.01,16.57c-0.4,0.64-0.95,0.26-1.43,0.4c0-0.18,0-0.27,0-0.4C33.06,16.57,33.51,16.57,34.01,16.57z"/>
		<path class="st13" d="M42.78,21.85c0.2,0,0.41,0,0.61,0c0,0.26,0,0.52,0,0.88C42.93,22.52,42.8,22.23,42.78,21.85z"/>
		<path class="st3" d="M60.75,14.91c-0.07-0.07-0.14-0.14-0.2-0.2c0.33-0.31,0.72-0.43,1.18-0.4C61.61,14.89,61,14.6,60.75,14.91z"
			/>
		<path class="st3" d="M39.51,23.69c-0.05,0.07-0.09,0.18-0.15,0.19c-0.07,0.02-0.24-0.07-0.24-0.08c0.13-0.4-0.53-0.22-0.42-0.58
			c0.02-0.06,0.13-0.1,0.2-0.15C39.1,23.28,39.31,23.48,39.51,23.69z"/>
		<path class="st14" d="M48.09,14.09c-0.06-0.33,0.07-0.47,0.41-0.41C48.36,13.82,48.22,13.96,48.09,14.09z"/>
		<path class="st15" d="M42.13,27.14c-0.07-0.07-0.14-0.14-0.2-0.2C42,27.01,42.07,27.07,42.13,27.14z"/>
		<path class="st15" d="M41.93,26.94c-0.06-0.05-0.11-0.09-0.17-0.14c0.06-0.02,0.11-0.04,0.17-0.07
			C41.93,26.8,41.93,26.87,41.93,26.94z"/>
		<path class="st15" d="M40.94,26.34c0.06,0.05,0.11,0.09,0.17,0.14c-0.06,0.02-0.11,0.04-0.17,0.07
			C40.94,26.48,40.94,26.41,40.94,26.34z"/>
		<path class="st15" d="M40.53,25.93c0.07,0.07,0.14,0.14,0.2,0.2C40.67,26.07,40.6,26,40.53,25.93z"/>
		<path class="st15" d="M40.33,25.73c0.07,0.07,0.14,0.14,0.2,0.2C40.47,25.87,40.4,25.8,40.33,25.73z"/>
		<path class="st15" d="M39.72,24.71c0.07,0.07,0.14,0.14,0.2,0.2C39.85,24.85,39.78,24.78,39.72,24.71z"/>
		<path class="st15" d="M39.51,24.51c0.07,0.07,0.14,0.14,0.2,0.2C39.65,24.64,39.58,24.57,39.51,24.51z"/>
		<path class="st16" d="M30.29,43.48c0.09,0.07,0.17,0.19,0.26,0.19c0.34,0.02,0.67,0,1.01,0.02c0.06,0,0.11,0.13,0.16,0.2
			c-0.3,0-0.61-0.03-0.91,0.01c-0.31,0.04-0.62,0.13-0.93,0.2c-0.07,0-0.14,0-0.2,0c0-0.07,0-0.14,0-0.2
			c0.07-0.07,0.14-0.14,0.2-0.2C30.02,43.61,30.16,43.55,30.29,43.48z"/>
		<path class="st5" d="M29.68,43.89c0,0.07,0,0.14,0,0.2c0,0.03,0.01,0.09,0,0.1c-0.66,0.2-0.87,0.16-1.63-0.3
			C28.59,43.89,29.13,43.89,29.68,43.89z"/>
		<path class="st5" d="M41.32,41.64c-0.75,0-1.5,0-2.25,0c0.02-0.06,0.05-0.17,0.07-0.17c0.7-0.01,1.4-0.01,2.1,0
			C41.27,41.47,41.29,41.58,41.32,41.64z"/>
		<path class="st5" d="M30.29,43.48c-0.14,0.07-0.27,0.14-0.41,0.2c0-0.17,0-0.34,0-0.58c0.35,0.04,0.72-0.24,1.02,0.17
			C30.7,43.34,30.5,43.41,30.29,43.48z"/>
		<path class="st2" d="M39.48,43.48c0.46-0.53,1.13-0.48,1.72-0.6c1.11-0.23,2.18-0.51,2.99-1.36c0.14-0.15,0.26-0.33,0.39-0.49
			c0.07,0.08,0.18,0.15,0.19,0.24c0.03,0.19,0.01,0.38,0.01,0.58c0,0.14,0,0.27,0,0.41c0.01,0.36-0.06,0.69-0.19,1.04
			c-0.43,1.14-1.14,2.18-1.34,3.43c-0.1,0.61-0.17,0.6,0.3,1.25c0,0.12,0,0.24,0,0.41c-0.31,0-0.56,0-0.82,0
			c-0.5,0.09-0.94-0.17-1.4-0.28c-0.52-0.13-0.96-0.55-1.5-0.51c-0.59,0.04-0.96-0.53-1.56-0.45c-0.12,0.02-0.25-0.3-0.42-0.38
			c-0.4-0.17-0.83-0.28-1.24-0.42c0.08-0.07,0.16-0.15,0.25-0.2c0.46-0.27,0.94-0.5,1.18-1.02c0.14-0.14,0.27-0.27,0.41-0.41
			c0.14-0.2,0.27-0.41,0.41-0.61C39.07,43.89,39.28,43.68,39.48,43.48z"/>
		<path class="st4" d="M56.02,45.93c0.01,0.26-0.08,0.54,0.27,0.77c-0.84,0.36-1.62,0.73-2.52,0.66c-0.07,0-0.14,0-0.2,0
			c-0.29-0.48-0.83-0.66-1.23-1.02c-0.23-0.36-0.5-0.64-0.91-0.85c-0.37-0.19-0.7-0.56-0.93-0.92c-0.31-0.49-0.98-0.71-1.02-1.46
			c0.19-0.01,0.38-0.02,0.57-0.04c0.99-0.07,1.98-0.16,2.97-0.2c1.09-0.05,1.97,0.32,2.39,1.42c0.11,0.56,0.45,1.06,0.52,1.63
			C55.93,45.93,55.99,45.93,56.02,45.93z M50.3,43.86c0.36,0.01,0.72,0.04,1.07,0.01c0.06,0,0.12-0.21,0.19-0.36
			C50.65,43.48,50.65,43.48,50.3,43.86z"/>
		<path class="st4" d="M29.88,44.09c0.31-0.07,0.62-0.16,0.93-0.2c0.3-0.03,0.61-0.01,0.91-0.01c0.19,0.02,0.42-0.01,0.58,0.08
			c0.67,0.39,1.39,0.35,2.11,0.32c0.52-0.03,0.95-0.34,1.35-0.66c0.18-0.15,0.34-0.33,0.51-0.5c0.31-0.33,0.68-0.48,1.14-0.46
			c0.47,0.01,0.94,0,1.43,0c0.01,0.13,0.05,0.29,0.02,0.31c-0.45,0.27-0.71,0.68-0.92,1.14c-0.07,0.14-0.19,0.26-0.28,0.39
			c-0.43,0.33-0.95,0.59-1.26,1c-0.23,0.32-0.69,0.01-0.78,0.42c-0.92-0.07-1.77-0.43-2.64-0.7c-0.69-0.22-1.37-0.48-2.1-0.54
			c-0.34-0.03-0.66-0.18-0.98-0.27C29.88,44.29,29.88,44.19,29.88,44.09z M33.17,45.11c0.62,0,1.22,0.01,1.82-0.01
			c0.08,0,0.15-0.18,0.29-0.36c-0.78,0-1.44,0-2.11,0C33.17,44.87,33.17,44.96,33.17,45.11z"/>
		<path class="st2" d="M44.79,49.2c-0.2-0.08-0.52,0.19-0.61-0.2c0.02-0.66-0.11-1.33,0.36-1.94c0.14-0.18,0.23-0.67-0.16-0.92
			c0.18-0.35,0.36-0.71,0.62-1.22c0.32,0.72,0.57,1.28,0.81,1.84c0,0.25,0,0.51,0,0.82c0.24,0,0.42,0,0.61,0c0.07,0,0.14,0,0.2,0
			c0,0.14,0,0.27,0,0.41c-0.27,0-0.54,0-0.82,0c-0.26,0-0.52,0-0.82,0c0.01,0.32,0.03,0.57,0.04,1.01c0.21-0.25,0.32-0.34,0.36-0.45
			c0.09-0.24,0.27-0.12,0.42-0.15c0.27,0,0.54,0,0.82,0c0.02,0.06,0.04,0.11,0.07,0.17c0.05-0.06,0.09-0.11,0.14-0.17
			c0.57,0,0.57,0,0.61,0.41c-0.12,0.02-0.31,0-0.36,0.07c-0.23,0.37-0.58,0.35-0.94,0.34c-0.11,0-0.23,0.04-0.34,0.05
			c0,0.16,0,0.25,0,0.35c-0.07,0-0.14,0-0.2,0c-0.03-0.15,0.1-0.39-0.2-0.41C45.2,49.2,44.99,49.2,44.79,49.2z"/>
		<path class="st5" d="M49.89,48.99c-0.2,0.2-0.37,0.44-0.6,0.6c-0.28,0.2-0.6,0.35-0.89,0.54c-0.44,0.29-0.94,0.47-1.52,0.1
			c-0.35-0.22-0.77-0.34-1.08-0.63c0.7-0.04,1.38,0,2.03,0.4c0.02-0.73,0.64-0.18,0.84-0.52c-0.01-0.07-0.03-0.16-0.04-0.26
			c-0.28-0.03-0.53-0.06-0.78-0.08c0-0.16,0-0.26,0-0.36c0.19,0.05,0.37,0.1,0.65,0.18c-0.1-0.23-0.17-0.41-0.25-0.59
			c0.14,0.03,0.29-0.06,0.42,0.15c0.17,0.27,0.43,0.49,0.75,0.85c0.04-0.45,0.07-0.72,0.09-0.99c0.17,0,0.27,0,0.37,0
			c0,0.07,0,0.14,0,0.2C49.89,48.72,49.89,48.86,49.89,48.99z"/>
		<path class="st5" d="M44.38,46.13c0.39,0.25,0.29,0.74,0.16,0.92c-0.47,0.61-0.34,1.28-0.36,1.94c-0.36-0.07-0.73-0.11-1.07-0.22
			c-0.15-0.05-0.24-0.26-0.36-0.39c0.25,0,0.51,0,0.82,0c0-0.17,0-0.29,0-0.41c0.06-0.02,0.16-0.04,0.17-0.07
			C43.83,47.26,44.19,46.73,44.38,46.13z"/>
		<path class="st3" d="M35.6,45.93c0.09-0.42,0.55-0.11,0.78-0.42c0.31-0.42,0.83-0.68,1.26-1c0,0.1,0.01,0.19,0,0.29
			c-0.06,0.36,0.18,0.33,0.41,0.32c-0.24,0.52-0.72,0.76-1.18,1.02c-0.09,0.05-0.17,0.13-0.25,0.2c-0.09-0.11-0.18-0.21-0.34-0.41
			C36.12,45.93,35.86,45.93,35.6,45.93z"/>
		<path class="st3" d="M49.89,48.99c0-0.14,0-0.27,0-0.41c0.03,0,0.09,0.01,0.09,0c0.11-0.54,0.21-1.09,0.31-1.63
			c0.06-0.02,0.15-0.03,0.16-0.07c0.08-0.4,0.11-0.8-0.16-1.16c0.1,0,0.2,0,0.38,0c0.01,0.39,0,0.78,0.03,1.17
			c0.01,0.09,0.13,0.17,0.2,0.26c-0.13,0.59-0.26,1.18-0.4,1.84c0.16,0,0.28,0,0.4,0c-0.13,0.36-0.37,0.21-0.59,0.13
			C50.18,49.07,50.04,49.03,49.89,48.99z"/>
		<path class="st5" d="M52.34,46.95c0.2,0.25,0.4,0.5,0.65,0.81c-0.17,0.2-0.36,0.42-0.53,0.62c-0.27,0-0.5,0-0.74,0
			c0-0.54,0-1.09,0-1.63c0.14,0,0.27,0,0.41,0C52.21,46.81,52.28,46.88,52.34,46.95z"/>
		<path class="st5" d="M50.91,48.99c-0.12,0-0.25,0-0.4,0c0.14-0.66,0.27-1.25,0.4-1.84c0.07-0.04,0.15-0.11,0.22-0.11
			c0.06,0,0.12,0.07,0.18,0.11c0.07,0.41,0.14,0.82,0.2,1.23C51.32,48.58,51.12,48.79,50.91,48.99z"/>
		<path class="st17" d="M51.53,48.38c-0.07-0.41-0.14-0.82-0.2-1.23c0.31-0.02,0.17-0.25,0.2-0.41c0.07,0,0.14,0,0.2,0
			c0,0.54,0,1.09,0,1.63C51.66,48.38,51.6,48.38,51.53,48.38z"/>
		<path class="st4" d="M44.79,49.2c0.2,0,0.41,0,0.61,0c0,0.07,0,0.14,0,0.2C45.2,49.32,44.88,49.59,44.79,49.2z"/>
		<path class="st18" d="M45.4,49.4c0-0.07,0-0.14,0-0.2c0.31,0.02,0.17,0.25,0.2,0.41C45.54,49.54,45.47,49.47,45.4,49.4z"/>
		<path class="st16" d="M52.34,46.95c-0.07-0.07-0.14-0.14-0.2-0.2c0.07,0,0.14,0,0.2,0C52.34,46.81,52.34,46.88,52.34,46.95z"/>
		<path class="st19" d="M44.79,41.84c0-0.19,0.02-0.39-0.01-0.58c-0.01-0.09-0.13-0.16-0.19-0.24c-0.03-0.32,0.09-0.53,0.41-0.61
			c0,0.2,0,0.41,0,0.61c0,0.19,0.02,0.39-0.01,0.58C44.97,41.69,44.86,41.76,44.79,41.84z"/>
		<path class="st3" d="M39.48,43.48c-0.2,0.2-0.41,0.41-0.61,0.61c0-0.19,0-0.37,0-0.61C39.11,43.48,39.29,43.48,39.48,43.48z"/>
		<path class="st6" d="M38.46,44.7c-0.14,0.14-0.27,0.27-0.41,0.41C37.99,44.78,38.13,44.64,38.46,44.7z"/>
		<path class="st2" d="M50.3,45.72c0.27,0.36,0.24,0.76,0.16,1.16c-0.01,0.03-0.1,0.04-0.16,0.07c-0.13-0.47-0.62,0-0.93-0.5
			c0.05,0.04-0.06-0.05-0.29-0.23c0,0.41,0,0.67,0,0.93c-0.14-0.07-0.27-0.14-0.41-0.2c-0.06-0.29-0.3-0.28-0.38-0.11
			c-0.12,0.27-0.17,0.55-0.44,0.72c-0.14-0.12-0.37-0.23-0.39-0.37c-0.04-0.33-0.25-0.22-0.43-0.24c-0.08-0.48-0.23-0.9-0.55-1.3
			c-0.29-0.37-0.13-0.96-0.47-1.36c0-0.95,0-1.91,0-2.86c0-0.13,0-0.25,0-0.62c0.17,0.35,0.2,0.5,0.29,0.6
			c0.54,0.62,1.08,1.25,1.65,1.85c0.58,0.61,1.19,1.21,1.79,1.79c0.13,0.13,0.35,0.17,0.48,0.3C50.3,45.43,50.28,45.6,50.3,45.72z"
			/>
		<path class="st4" d="M58.06,42.66c0.02,0.31,0.25,0.17,0.41,0.2c0.12,0.42,0.46,0.9,0.77,1.08c0,0.53,0,1.05,0,1.48
			c-0.16,0.11-0.25,0.17-0.33,0.23c0.06,0.02,0.12,0.05,0.17,0.07c-0.14,0.43-0.52,0.07-0.75,0.25c-0.04,0.1-0.08,0.22-0.13,0.33
			c-0.43,0.04-0.87,0.08-1.36,0.13c-0.05-0.21-0.13-0.51-0.2-0.81c-0.07-0.31-0.14-0.61-0.21-0.92c0-0.23,0.04-0.46-0.01-0.68
			c-0.09-0.38-0.15-0.8-0.6-0.95c-0.26-0.3-0.54-0.58-0.78-0.9c-0.1-0.13-0.08-0.32,0.17-0.33c0.08,0.07,0.15,0.18,0.24,0.19
			c0.19,0.03,0.38,0.01,0.58,0.01c0.07,0.07,0.14,0.14,0.2,0.2c0.22,0.03,0.44-0.06,0.65,0.13C57.21,42.68,57.64,42.7,58.06,42.66z"
			/>
		<path class="st3" d="M55.82,43.07c0.45,0.16,0.51,0.58,0.6,0.95c0.05,0.22,0.01,0.45,0.01,0.68c-0.1,0-0.2,0-0.35,0
			c-0.12,0.4-0.03,0.82-0.06,1.23c-0.03,0-0.09,0-0.09,0c-0.07-0.58-0.4-1.07-0.52-1.63c0.12,0,0.24,0,0.47,0
			C55.68,43.84,55.42,43.44,55.82,43.07z"/>
		<path class="st3" d="M44.79,41.84c0.07-0.08,0.18-0.15,0.19-0.24c0.03-0.19,0.01-0.38,0.01-0.58c0.13,0.09,0.24,0.2,0.38,0.27
			c0.13,0.07,0.29,0.09,0.44,0.14c0,0.27,0,0.54,0,0.82c-0.34,0-0.68,0-1.02,0C44.79,42.12,44.79,41.98,44.79,41.84z"/>
		<path class="st16" d="M45.81,42.25c0-0.27,0-0.54,0-0.82c0.07,0,0.14,0,0.2,0c0,0.95,0,1.91,0,2.86c-0.07-0.08-0.19-0.17-0.2-0.25
			C45.8,43.45,45.81,42.85,45.81,42.25z"/>
		<path class="st17" d="M56.02,42.05c-0.19,0-0.39,0.02-0.58-0.01c-0.09-0.01-0.16-0.13-0.24-0.19c0.19,0,0.39-0.02,0.58,0.01
			C55.87,41.87,55.94,41.98,56.02,42.05z"/>
		<path class="st16" d="M51.73,46.75c-0.07,0-0.14,0-0.2,0c0.21-0.28,0.41-0.28,0.61,0C52,46.75,51.87,46.75,51.73,46.75z"/>
		<path class="st17" d="M56.22,42.25c-0.07-0.07-0.14-0.14-0.2-0.2C56.09,42.12,56.16,42.18,56.22,42.25z"/>
		<path class="st18" d="M63.37,43.89c-0.31,0.05-0.49-0.11-0.69-0.54c0.1-0.1,0.25-0.25,0.51-0.51c0.14,0.33,0.19,0.47,0.28,0.68
			c0.77-0.07,1.56-0.15,2.6-0.25c-0.3,0.25-0.38,0.37-0.5,0.41c-0.24,0.08-0.12,0.27-0.15,0.42c-0.07,0-0.14,0-0.2,0
			c-0.21-0.07-0.41-0.18-0.62-0.2C64.18,43.86,63.78,43.89,63.37,43.89z"/>
		<path class="st5" d="M59.08,45.72c-0.06-0.02-0.12-0.05-0.17-0.07c0.09-0.06,0.17-0.12,0.33-0.23c0-0.43,0-0.95,0-1.48
			c-0.31-0.18-0.65-0.66-0.77-1.08c0.69,0.23,0.92,0.87,1.23,1.43c0.01,0.27,0.03,0.55,0.04,0.82c0.17,0,0.27,0,0.37,0
			C59.9,45.55,59.59,45.8,59.08,45.72z"/>
		<path class="st5" d="M61.74,44.5c0-0.07,0-0.14,0-0.2c0.54,0,1.09,0,1.63,0c0.34,0,0.68,0,1.02,0c-0.13,0.47-0.56,0.15-0.83,0.27
			c-0.54,0.23-1.16,0.26-1.82,0.39C61.74,44.75,61.74,44.62,61.74,44.5z"/>
		<path class="st5" d="M60.51,44.29c0.27,0.2,0.54,0.41,0.82,0.61c-0.13,0.44-0.56,0.44-0.94,0.69c-0.03-0.21-0.06-0.35-0.08-0.49
			c0-0.19-0.02-0.39,0.01-0.58C60.33,44.45,60.44,44.37,60.51,44.29z"/>
		<path class="st2" d="M64.39,44.29c-0.34,0-0.68,0-1.02,0c0-0.14,0-0.27,0-0.41c0.4,0,0.81-0.02,1.21,0.01
			c0.21,0.02,0.42,0.13,0.62,0.2c-0.08,0.07-0.15,0.18-0.24,0.19C64.78,44.32,64.58,44.29,64.39,44.29z"/>
		<path class="st16" d="M60.51,44.29c-0.07,0.08-0.18,0.15-0.19,0.24c-0.03,0.19-0.01,0.38-0.01,0.58c-0.07,0-0.14,0-0.2,0
			c-0.1,0-0.19,0-0.37,0c-0.01-0.27-0.03-0.54-0.04-0.82c0.11,0.13,0.21,0.25,0.35,0.41c0.04-0.2,0.07-0.4,0.13-0.7
			C60.32,44.14,60.42,44.22,60.51,44.29z"/>
		<path class="st3" d="M45.81,42.25c0,0.6-0.01,1.19,0.01,1.79c0,0.09,0.13,0.17,0.2,0.25c0.34,0.39,0.19,0.99,0.47,1.36
			c0.32,0.4,0.47,0.82,0.55,1.3c-0.08,0.2,0.19,0.52-0.2,0.61c-0.07,0-0.14,0-0.2,0c-0.07,0-0.14,0-0.2,0c0-0.06,0.03-0.15,0-0.19
			c-0.2-0.22-0.4-0.42-0.61-0.63c-0.25-0.56-0.5-1.12-0.81-1.84c-0.26,0.51-0.44,0.87-0.62,1.22c-0.19,0.6-0.55,1.13-0.65,1.77
			c0,0.03-0.11,0.05-0.17,0.07c-0.47-0.65-0.4-0.64-0.3-1.25c0.2-1.25,0.9-2.28,1.34-3.43c0.13-0.35,0.2-0.68,0.19-1.04
			C45.13,42.25,45.47,42.25,45.81,42.25z"/>
		<path class="st18" d="M50.3,43.86c0.35-0.38,0.35-0.38,1.27-0.34c-0.08,0.15-0.13,0.35-0.19,0.36
			C51.01,43.89,50.65,43.87,50.3,43.86z"/>
		<path class="st18" d="M33.17,45.11c0-0.15,0-0.25,0-0.37c0.67,0,1.32,0,2.11,0c-0.14,0.18-0.21,0.36-0.29,0.36
			C34.39,45.12,33.79,45.11,33.17,45.11z"/>
		<path class="st18" d="M47.85,48.79c0,0.1,0,0.2,0,0.36c0.25,0.03,0.5,0.05,0.78,0.08c0.02,0.09,0.03,0.18,0.04,0.26
			c-0.19,0.34-0.82-0.21-0.84,0.52c-0.64-0.4-1.33-0.44-2.03-0.4c0-0.1,0-0.2,0-0.35c0.11-0.02,0.22-0.06,0.34-0.05
			c0.36,0.01,0.71,0.02,0.94-0.34c0.04-0.07,0.23-0.05,0.36-0.07C47.58,48.79,47.72,48.79,47.85,48.79z"/>
		<path class="st5" d="M47.85,48.79c-0.14,0-0.27,0-0.41,0c-0.04-0.41-0.04-0.41-0.61-0.41c-0.07,0-0.14,0-0.2,0
			c0-0.14,0-0.27,0-0.41c0-0.14,0-0.27,0-0.41c0.07,0,0.14,0,0.2,0c0.15,0.14,0.3,0.28,0.46,0.41c0.18,0.14,0.37,0.27,0.56,0.41
			C47.85,48.51,47.85,48.65,47.85,48.79z"/>
		<path class="st4" d="M45.81,48.38c-0.14,0.03-0.33-0.09-0.42,0.15c-0.04,0.11-0.16,0.2-0.36,0.45c-0.02-0.45-0.03-0.7-0.04-1.01
			c0.3,0,0.56,0,0.82,0C45.81,48.11,45.81,48.24,45.81,48.38z"/>
		<path class="st18" d="M45.81,48.38c0-0.14,0-0.27,0-0.41c0.27,0,0.54,0,0.82,0c0,0.14,0,0.27,0,0.41
			C46.35,48.38,46.08,48.38,45.81,48.38z"/>
		<path class="st5" d="M45.81,46.75c0.2,0.21,0.41,0.41,0.61,0.63c0.03,0.04,0,0.12,0,0.19c-0.19,0-0.38,0-0.61,0
			C45.81,47.25,45.81,47,45.81,46.75z"/>
		<path class="st18" d="M46.63,48.38c0.07,0,0.14,0,0.2,0c-0.05,0.06-0.09,0.11-0.14,0.17C46.67,48.49,46.65,48.44,46.63,48.38z"/>
		<path class="st18" d="M48.67,46.95c0.14,0.07,0.27,0.14,0.41,0.2c0.12,0,0.24,0,0.35,0c0.06,0.24,0.09,0.57,0.14,0.57
			c0.53,0.03,0.26,0.42,0.32,0.65c-0.1,0-0.2,0-0.37,0c-0.03,0.27-0.05,0.54-0.09,0.99c-0.33-0.36-0.58-0.58-0.75-0.85
			c-0.13-0.2-0.28-0.12-0.42-0.15c0-0.07,0-0.14,0-0.2c0.02-0.19,0.02-0.55,0.07-0.55C48.81,47.56,48.63,47.21,48.67,46.95z"/>
		<path class="st4" d="M49.89,48.38c-0.06-0.24,0.21-0.62-0.32-0.65c-0.05,0-0.09-0.33-0.14-0.57c-0.11,0-0.23,0-0.35,0
			c0-0.26,0-0.52,0-0.93c0.23,0.18,0.34,0.27,0.29,0.23c0.31,0.51,0.8,0.03,0.93,0.5c-0.1,0.54-0.21,1.09-0.31,1.63
			c0,0.01-0.06,0-0.09,0C49.89,48.51,49.89,48.45,49.89,48.38z"/>
		<path class="st16" d="M48.26,48.17c0,0.07,0,0.14,0,0.2c0.07,0.18,0.15,0.35,0.25,0.59c-0.28-0.08-0.47-0.13-0.65-0.18
			c0-0.14,0-0.27,0-0.41c0.07-0.07,0.14-0.14,0.2-0.2C48.12,48.17,48.19,48.17,48.26,48.17z"/>
		<path class="st3" d="M48.06,48.17c-0.07,0.07-0.14,0.14-0.2,0.2c-0.19-0.14-0.38-0.27-0.56-0.41c-0.16-0.13-0.31-0.27-0.46-0.41
			c0.39-0.1,0.13-0.41,0.2-0.61c0.17,0.02,0.39-0.09,0.43,0.24c0.02,0.14,0.25,0.25,0.39,0.37C47.92,47.77,47.99,47.97,48.06,48.17z
			"/>
		<path class="st4" d="M48.06,48.17c-0.07-0.2-0.14-0.41-0.2-0.61c0.27-0.17,0.33-0.45,0.44-0.72c0.08-0.18,0.32-0.19,0.38,0.11
			c-0.03,0.26,0.14,0.61-0.34,0.67c-0.05,0.01-0.05,0.36-0.07,0.55C48.19,48.17,48.12,48.17,48.06,48.17z"/>
	</g>
</g>
</svg>
